<?xml version="1.0" standalone="no"?>
<!DOCTYPE svg PUBLIC "-//W3C//DTD SVG 20010904//EN"
 "http://www.w3.org/TR/2001/REC-SVG-20010904/DTD/svg10.dtd">
<svg version="1.0" xmlns="http://www.w3.org/2000/svg"
 width="300.000000pt" height="300.000000pt" viewBox="0 0 300.000000 300.000000"
 preserveAspectRatio="xMidYMid meet">
<metadata>
Created by potrace 1.10, written by Peter Selinger 2001-2011
</metadata>
<g transform="translate(0.000000,300.000000) scale(0.050000,-0.050000)"
fill="#39683c" stroke="none">
<path d="M2636 4888 l-86 -112 -235 10 c-188 8 -235 5 -235 -17 0 -29 284
-269 319 -269 24 0 18 -61 -22 -246 -28 -128 -30 -127 211 -67 l210 53 193
-90 c176 -82 249 -105 249 -81 0 4 -10 34 -22 65 -12 31 -33 99 -47 152 l-26
96 130 92 c149 106 152 101 -113 173 -103 29 -189 54 -192 57 -2 3 -51 71
-109 151 -125 174 -117 173 -225 33z m178 -219 c76 -84 141 -109 280 -109
l136 -1 -76 -64 -75 -65 22 -117 c27 -147 39 -142 -157 -61 l-166 69 -117 -31
c-110 -28 -201 -39 -201 -23 0 18 64 133 79 143 22 13 2 90 -23 90 -10 0 -14
7 -8 16 11 19 -59 86 -74 71 -6 -5 -16 0 -23 12 -18 29 35 27 65 -3 19 -19 24
-16 24 12 0 27 11 34 40 26 22 -6 36 -3 30 6 -14 22 28 34 113 31 41 -1 69 6
63 15 -5 9 -22 12 -37 6 -15 -6 -33 -1 -40 10 -24 38 108 8 145 -33z"/>
<path d="M4020 4409 c0 -17 35 -84 78 -149 l79 -118 -58 -90 c-73 -115 -81
-161 -29 -166 22 -2 99 -9 170 -16 125 -12 135 -17 258 -131 145 -134 162
-134 162 1 0 140 11 155 142 192 65 18 118 39 118 47 0 22 -47 61 -73 61 -84
0 -198 123 -235 252 -46 160 -65 169 -190 89 l-98 -62 -152 60 c-178 71 -172
70 -172 30z m471 -242 c27 -29 49 -42 49 -29 0 14 9 19 19 13 11 -7 14 -27 7
-45 -10 -25 -5 -30 21 -20 18 7 33 5 33 -5 0 -10 27 -24 60 -31 55 -12 86 -50
40 -50 -36 0 -100 -79 -100 -125 -1 -82 -35 -111 -76 -65 -69 78 -157 125
-260 139 -123 17 -125 23 -35 110 38 37 65 75 59 84 -9 15 51 27 97 19 8 -1
15 12 15 28 0 42 15 38 71 -23z"/>
<path d="M1439 4015 c-82 -55 -94 -96 -97 -320 -1 -102 -10 -175 -22 -175 -11
0 -20 8 -20 18 0 35 -209 248 -266 272 -123 51 -234 -39 -234 -191 0 -64 -8
-75 -80 -106 -158 -70 -203 -199 -108 -311 67 -81 410 -96 473 -22 33 38 33
40 -5 40 -22 0 -40 8 -40 18 0 10 -11 17 -25 17 -78 -3 -115 8 -115 35 0 27
-23 38 -63 33 -24 -3 -5 56 30 92 18 19 52 60 75 90 47 63 101 70 157 20 58
-53 90 -74 122 -82 141 -37 156 -38 145 -11 -9 25 16 38 60 30 10 -2 10 8 2
21 -8 13 2 35 23 50 37 27 41 39 62 166 16 95 147 186 147 101 0 -11 14 -20
31 -20 16 0 35 -12 40 -26 6 -14 39 -28 74 -30 120 -10 125 -78 11 -156 l-83
-58 66 -6 c71 -7 264 106 302 178 56 104 -42 205 -204 211 -82 2 -102 13 -167
85 -90 99 -182 110 -291 37z"/>
<path d="M2090 3507 c-22 -4 -94 -18 -160 -30 -66 -13 -133 -31 -150 -41 -23
-15 -22 -16 7 -7 28 9 34 4 25 -20 -6 -18 -3 -26 8 -19 11 7 45 -4 75 -24 30
-21 83 -36 116 -34 42 3 69 -8 86 -34 15 -25 16 -38 2 -38 -12 0 -16 -9 -9
-20 7 -11 -2 -20 -19 -20 -17 0 -31 -7 -31 -16 0 -9 -18 -36 -40 -60 -22 -23
-43 -72 -46 -108 -5 -62 -93 -99 -134 -56 -22 23 -140 55 -140 38 0 -10 13
-18 28 -18 18 0 25 -14 18 -40 -14 -54 -35 -50 -88 15 -30 37 -40 42 -30 17
59 -166 52 -376 -17 -509 -80 -156 -22 -159 132 -8 133 130 134 137 68 280
-56 120 -55 123 45 55 164 -111 317 -16 299 187 -10 113 -9 115 58 159 145 95
173 193 85 293 -60 69 -91 78 -188 58z"/>
<path d="M4886 3298 l4 -141 -124 -64 c-164 -84 -160 -107 39 -206 179 -89
234 -171 252 -372 5 -58 32 -41 127 81 l90 116 143 -20 c182 -25 183 -22 73
135 l-92 132 23 120 c34 172 30 177 -144 166 l-147 -9 -99 102 c-135 138 -150
134 -145 -40z m454 -183 c-1 -14 -9 -58 -18 -97 -18 -78 -5 -116 66 -196 l42
-48 -92 12 c-85 12 -96 8 -158 -56 -70 -73 -106 -74 -97 -3 7 54 -46 174 -73
168 -30 -7 -190 68 -190 88 0 16 31 25 66 19 9 -2 32 15 50 37 19 22 58 43 88
46 30 4 60 13 67 20 7 7 34 3 59 -9 36 -16 57 -13 93 12 55 38 97 42 97 7z"/>
<path d="M1040 3097 c-379 -262 -396 -543 -30 -488 82 12 90 10 118 -45 81
-157 309 -159 393 -3 49 93 82 359 49 405 -27 39 -30 39 -30 6 0 -38 -77 -193
-107 -214 -9 -7 -16 -20 -15 -30 3 -33 -21 -91 -33 -80 -6 6 -22 -4 -35 -22
-23 -30 -26 -30 -39 10 -7 24 -27 44 -43 44 -15 0 -44 18 -63 40 -18 22 -50
40 -69 40 -20 0 -36 11 -36 24 0 19 -5 19 -24 0 -32 -32 -49 -30 -64 9 -11 28
-9 29 21 5 30 -25 31 -24 13 12 -23 45 -13 96 16 79 10 -6 18 5 18 25 0 20 18
48 40 61 22 14 40 44 40 66 0 23 9 36 20 29 29 -18 25 48 -5 78 -20 20 -47 10
-135 -51z"/>
<path d="M2290 2228 l-59 -232 -297 -149 c-163 -82 -294 -158 -290 -170 8 -23
480 -200 541 -204 24 -1 38 -24 46 -72 6 -39 24 -133 40 -208 16 -76 29 -164
29 -195 0 -92 36 -71 260 151 l210 209 285 14 c157 7 285 17 285 22 0 4 -53
98 -119 209 l-118 200 69 154 c39 84 83 173 99 197 75 115 59 119 -257 66
-130 -22 -244 -40 -253 -40 -9 0 -99 63 -200 140 -227 174 -201 182 -271 -92z
m207 -92 c13 21 22 20 42 -5 14 -17 48 -31 74 -31 27 0 53 -13 59 -29 26 -66
171 -59 327 17 196 96 193 98 100 -93 -33 -69 -56 -142 -51 -163 6 -22 -3 -49
-20 -61 -45 -33 -1 -119 112 -225 l90 -84 -236 -1 -236 -1 -194 -185 c-203
-193 -239 -200 -192 -38 35 122 14 243 -42 243 -16 0 -30 9 -30 20 0 11 -17
20 -39 20 -21 0 -44 9 -51 20 -7 11 -26 20 -42 20 -44 0 -308 106 -308 124 0
9 23 16 50 16 28 0 50 9 50 20 0 11 27 20 59 20 66 0 161 37 161 63 0 9 11 17
25 18 34 0 179 137 167 156 -6 9 7 28 28 43 21 15 33 35 28 44 -20 31 14 104
34 74 15 -23 21 -23 35 -2z"/>
<path d="M4213 2407 c-7 -8 -13 -93 -13 -191 l0 -177 -179 -114 c-98 -63 -179
-129 -180 -146 -1 -29 322 -179 386 -179 24 0 93 -220 113 -360 15 -105 51
-87 177 90 l115 160 199 10 c231 12 226 -1 88 215 l-102 162 53 174 c55 180
48 222 -30 199 -16 -4 -92 -22 -168 -39 l-137 -32 -105 81 c-57 44 -120 98
-140 120 -38 42 -55 48 -77 27z m587 -292 c0 -14 -9 -57 -21 -95 -54 -186 -47
-246 39 -336 l80 -82 -64 -11 c-35 -6 -104 -13 -153 -16 -83 -5 -95 -13 -177
-120 -108 -144 -118 -143 -110 3 6 107 -86 253 -129 206 -22 -24 -243 105
-222 129 12 16 27 24 32 19 22 -22 166 77 216 149 30 43 63 79 73 79 10 0 14
7 9 16 -6 8 12 17 38 20 27 2 49 -5 49 -16 0 -11 41 -20 90 -20 50 0 90 9 90
21 0 12 9 16 20 9 11 -7 20 -4 20 6 0 17 72 60 105 63 8 0 15 -10 15 -24z"/>
</g>
</svg>
